Coordinates
version=1
nRows=6
nColumns=63
inDegrees=yes

Units are S.I. units (second, meters, Newtons, ...)
If the header above contains a line with 'inDegrees', this indicates whether rotational values are in degrees (yes) or radians (no).

endheader
time	pelvis_tilt	pelvis_list	pelvis_rotation	pelvis_tx	pelvis_ty	pelvis_tz	hip_flexion_r	hip_adduction_r	hip_rotation_r	knee_angle_r	knee_angle_r_beta	ankle_angle_r	subtalar_angle_r	mtp_angle_r	hip_flexion_l	hip_adduction_l	hip_rotation_l	knee_angle_l	knee_angle_l_beta	ankle_angle_l	subtalar_angle_l	mtp_angle_l	L5_S1_Flex_Ext	L5_S1_Lat_Bending	L5_S1_axial_rotation	L4_L5_Flex_Ext	L4_L5_Lat_Bending	L4_L5_axial_rotation	L3_L4_Flex_Ext	L3_L4_Lat_Bending	L3_L4_axial_rotation	L2_L3_Flex_Ext	L2_L3_Lat_Bending	L2_L3_axial_rotation	L1_L2_Flex_Ext	L1_L2_Lat_Bending	L1_L2_axial_rotation	L1_T12_Flex_Ext	L1_T12_Lat_Bending	L1_T12_axial_rotation	Abs_r3	Abs_r2	Abs_r1	Abs_t1	Abs_t2	neck_flexion	neck_bending	neck_rotation	arm_flex_r	arm_add_r	arm_rot_r	elbow_flex_r	pro_sup_r	wrist_flex_r	wrist_dev_r	arm_flex_l	arm_add_l	arm_rot_l	elbow_flex_l	pro_sup_l	wrist_flex_l	wrist_dev_l
      0.43333333	    -22.60041604	      5.05440472	    -95.67142723	     -0.05780085	      0.95771620	     -1.10184886	     20.38033000	     -5.54773324	    -27.84480193	     55.74965430	      0.97301502	     11.28464444	     15.10038914	      0.00000000	     32.07080283	    -17.91808419	     15.59450217	     55.63461566	      0.97100722	     15.02110538	    -19.61340802	      0.00000000	     -0.01045132	     -0.87127148	      0.00492471	     -0.01940915	     -1.15879106	      0.00523251	     -0.01717048	     -2.11840947	      0.00523251	     -0.01194482	     -2.11840947	      0.00430912	     -0.00970510	     -1.77669680	      0.00400133	     -0.00597189	     -1.34959952	      0.00369354	     -0.07465276	     -9.85599720	      0.02738978	      0.00000000	      0.00000000	    -15.07308638	     15.22615324	     -3.07571089	    -16.63895500	    -37.05127600	    -60.63189104	     89.44565512	     89.99559364	      0.00000000	      0.00000000	     -5.70135743	    -39.62947887	      8.05999072	     26.76497153	     89.99559364	      0.00000000	      0.00000000
      0.45000000	    -20.79029510	      6.25168297	   -107.80420272	     -0.07741771	      0.96034727	     -1.10864055	     27.45961353	     -3.82934956	    -14.23276738	     53.38235552	      0.93169787	      6.37684788	     11.82118280	      0.00000000	     28.67524620	    -23.33705342	      3.23452072	     56.07989772	      0.97877886	     15.54970338	    -19.49258968	      0.00000000	     -0.01007313	     -1.21461272	      2.44930982	     -0.01870682	     -1.61543492	      2.60239168	     -0.01654915	     -2.95320936	      2.60239168	     -0.01151259	     -2.95320936	      2.14314609	     -0.00935391	     -2.47683826	      1.99006423	     -0.00575579	     -1.88143510	      1.83698236	     -0.07195139	    -13.73994199	     13.62232641	      0.00000000	      0.00000000	    -10.77388882	     11.98866416	     -6.07602300	    -20.29054171	    -35.32551810	    -67.30592103	     91.77389854	     89.99559364	      0.00000000	      0.00000000	     -0.50669830	    -41.63150184	     10.53475788	     26.31464205	     89.99559364	      0.00000000	      0.00000000
      0.46666667	    -21.50301356	      5.55873679	   -107.46549659	     -0.07776784	      0.95822861	     -1.10082246	     27.05457291	     -5.23492460	    -13.99090029	     51.91473707	      0.90608309	      1.06850045	     10.97325693	      0.00000000	     26.96679126	    -23.50222852	      3.67338326	     54.88878472	      0.95799002	     17.76325196	    -19.39110475	      0.00000000	     -0.01504166	     -1.22441523	      2.35381655	     -0.02793387	     -1.62847226	      2.50093009	     -0.02471195	     -2.97704320	      2.50093009	     -0.01719112	     -2.97704320	      2.05958948	     -0.01396769	     -2.49682755	      1.91247595	     -0.00859481	     -1.89661920	      1.76536242	     -0.10744109	    -13.85083001	     13.09122153	      0.00000000	      0.00000000	    -13.52361184	      9.83385312	     -6.68776132	    -22.20763946	    -37.78074353	    -65.52985871	     91.83517000	     89.99559364	      0.00000000	      0.00000000	     -5.59300392	    -36.15952961	    -17.92100694	     31.91990171	     89.99559364	      0.00000000	      0.00000000
      0.48333333	    -23.73667275	      4.57097250	    -97.29369308	     -0.06786973	      0.95872921	     -1.07043656	     20.01784360	    -10.53412599	    -27.37008479	     45.16516002	      0.78828075	      8.67187212	     18.64548798	      0.00000000	     28.03460040	    -20.86386354	     13.38358945	     54.74575457	      0.95549367	     17.61898895	    -19.46014093	      0.00000000	     -0.01756487	     -1.09519356	      1.21806740	     -0.03261973	     -1.45660744	      1.29419662	     -0.02885733	     -2.66285363	      1.29419662	     -0.02007489	     -2.66285363	      1.06580898	     -0.01631074	     -2.23331871	      0.98967977	     -0.01003657	     -1.69645483	      0.91355055	     -0.12546413	    -12.38904861	      6.77452548	      0.00000000	      0.00000000	    -16.37162630	      8.92964294	    -11.47845165	    -31.38585993	    -35.67167923	    -71.52842461	     91.87364746	     89.99559364	      0.00000000	      0.00000000	      1.12133239	    -41.10006113	     12.42181905	     24.87583020	     89.99559364	      0.00000000	      0.00000000
      0.50000000	    -24.61039314	      4.60484086	    -94.56907126	     -0.06443358	      0.95653800	     -1.06111091	     19.32610665	    -11.05255623	    -25.80584618	     43.34243673	      0.75646823	      2.65632223	     16.61371965	      0.00000000	     28.43753109	    -20.26761830	     16.42111551	     54.08609526	      0.94398044	     18.21693819	    -19.47564757	      0.00000000	     -0.01408933	     -1.18305098	      1.00391885	     -0.02616529	     -1.57345781	      1.06666377	     -0.02314735	     -2.87647016	      1.06666377	     -0.01610269	     -2.87647016	      0.87842899	     -0.01308335	     -2.41247757	      0.81568406	     -0.00805064	     -1.83254597	      0.75293913	     -0.10063865	    -13.38290934	      5.58349544	      0.00000000	      0.00000000	    -15.35401847	     15.00396093	    -15.35714372	    -30.36718080	    -35.31050691	    -74.01353128	     86.63693388	     89.99559364	      0.00000000	      0.00000000	     -3.10015236	    -35.53534147	    -20.07263544	     34.29377753	     89.99559364	      0.00000000	      0.00000000
      0.51666667	    -28.26419063	      6.91598240	    -85.68481766	     -0.06279232	      0.94883921	     -1.06529824	     20.70552304	    -11.66666304	    -34.73826623	     41.76140772	      0.72887407	      8.26516691	     18.01516652	      0.00000000	     36.38017746	    -19.23468245	     27.11448579	     55.23885355	      0.96409987	     17.20560072	    -19.45238195	      0.00000000	     -0.00701044	     -0.85932569	     -0.54539515	     -0.01301909	     -1.14290317	     -0.57948235	     -0.01151746	     -2.08936448	     -0.57948235	     -0.00801224	     -2.08936448	     -0.47722076	     -0.00650990	     -1.75233695	     -0.44313356	     -0.00400577	     -1.33109549	     -0.40904637	     -0.05007490	     -9.72086407	     -3.03332423	      0.00000000	      0.00000000	    -15.90971096	     10.68948842	    -10.59093460	    -32.04412681	    -34.99038855	    -78.88917514	     89.11344530	     89.99559364	      0.00000000	      0.00000000	      2.82202738	    -41.36286444	      6.35747229	     28.34782173	     89.99559364	      0.00000000	      0.00000000
